<?xml version="1.0" encoding="UTF-8" standalone="no"?>
<svg
   fill="none"
   height="512"
   viewBox="0 0 512 512"
   width="512"
   version="1.1"
   id="svg213"
   sodipodi:docname=".editoricon.svg"
   xml:space="preserve"
   inkscape:version="1.2.1 (9c6d41e410, 2022-07-14)"
   inkscape:export-filename=".editoricon.png"
   inkscape:export-xdpi="96"
   inkscape:export-ydpi="96"
   xmlns:inkscape="http://www.inkscape.org/namespaces/inkscape"
   xmlns:sodipodi="http://sodipodi.sourceforge.net/DTD/sodipodi-0.dtd"
   xmlns="http://www.w3.org/2000/svg"
   xmlns:svg="http://www.w3.org/2000/svg"><defs
     id="defs217" /><sodipodi:namedview
     id="namedview215"
     pagecolor="#ffffff"
     bordercolor="#000000"
     borderopacity="0.25"
     inkscape:showpageshadow="2"
     inkscape:pageopacity="0.0"
     inkscape:pagecheckerboard="0"
     inkscape:deskcolor="#d1d1d1"
     showgrid="false"
     inkscape:zoom="0.1876289"
     inkscape:cx="-716.84053"
     inkscape:cy="500.98892"
     inkscape:window-width="1600"
     inkscape:window-height="837"
     inkscape:window-x="-8"
     inkscape:window-y="-8"
     inkscape:window-maximized="1"
     inkscape:current-layer="svg213" /><linearGradient
     id="a"
     gradientUnits="userSpaceOnUse"
     x1="13.929"
     x2="605.38599"
     y1="605.26501"
     y2="13.8068"><stop
       offset="0"
       stop-color="#623079"
       id="stop199" /><stop
       offset=".6784"
       stop-color="#8b44ac"
       id="stop201" /></linearGradient><clipPath
     id="b"><path
       d="M 147.9,124.667 H 471.896 V 496.061 H 147.9 Z"
       id="path204" /></clipPath><g
     id="g118"
     transform="scale(0.82714055)"><path
       d="m 539.777,619 h 3.711 c 38.715,0 70.522,-28.997 74.976,-66.508 L 619,301.197 C 614.599,134.103 477.74,0 309.555,0 138.592,0 0,138.568 0,309.5 0,478.603 135.642,616.078 304.077,619 Z"
       fill="url(#a)"
       id="path207"
       style="fill:url(#a)" /><path
       d="m 404.72548,421.41685 -36.3611,-111.9232 95.1843,-69.1531 h -117.659 l -36.3649,-111.9208 -0.011,-0.03 h 117.6767 l 36.3737,111.9384 v 0 l 0.03,-0.016 c 21.123,64.9386 -0.6329,138.7998 -58.8713,181.1068 z m -190.4115,0 -0.029,0.022 95.2095,69.1721 95.2311,-69.191 -95.2007,-69.1734 -95.2096,69.1708 z m -58.8447,-181.1055 c -22.2369,68.4545 3.5753,140.9894 58.8269,181.1195 l 0.01,-0.035 36.3674,-111.9169 -95.164,-69.1405 h 117.6312 l 36.3661,-111.9194 0.01,-0.03 h -117.6831 l -36.3623,111.9232 z"
       fill="#eb5424"
       id="path219"
       style="fill:#ffffff;stroke-width:1.26561" /></g></svg>
